<svg version="1.2" xmlns="http://www.w3.org/2000/svg" viewBox="0 0 4096 1050" width="4096" height="1050">
	<style>
		.s0 { fill: #ff0000 } 
		.s1 { fill: #ffffff } 
	</style>
	<g id="Background">
		<path id="Path 0" class="s0" d="m0 79.5v79.5h215v22h-215v156h215v21h-215v156h215v22h-215v156h215v21h-215v156h215v22h-215v159h4096v-159h-215v-22h215v-156h-215v-21h215v-156h-215v-22h215v-156h-215v-21h215v-156h-215v-22h215v-159h-4096z"/>
		<path id="Path 1" class="s1" d="m0 170v11h215v-22h-215zm3881 0v11h215v-22h-215zm-3881 177.5v10.5h215v-21h-215zm3881 0v10.5h215v-21h-215zm-3881 177.5v11h215v-22h-215zm3881 0v11h215v-22h-215zm-3881 177.5v10.5h215v-21h-215zm3881 0v10.5h215v-21h-215zm-3881 177.5v11h215v-22h-215zm3881 0v11h215v-22h-215zm-3163-737.92c-6.88 0.44-19.48 1.54-28 2.45-8.52 0.91-23.38 2.97-33 4.58-9.63 1.61-25.6 4.92-35.5 7.37-9.9 2.44-24.52 6.65-32.5 9.35-7.98 2.7-18.77 6.62-24 8.72-5.23 2.11-16.25 7.24-24.5 11.41-8.25 4.17-19.5 10.43-25 13.91-5.5 3.49-14.05 9.38-19 13.11-4.95 3.72-13.27 10.56-18.5 15.19-5.23 4.63-13.51 12.9-18.41 18.38-4.91 5.47-11.93 14-15.6 18.95-3.68 4.95-8.93 12.6-11.66 17-2.73 4.4-6.82 11.37-9.08 15.5-2.26 4.12-6.56 13.12-9.55 20-2.99 6.87-7.49 18.8-10 26.5-2.51 7.7-5.47 18.5-6.57 24-1.11 5.5-2.55 14.72-3.2 20.5-0.74 6.55-0.98 17.65-0.64 29.5 0.39 13.79 1.11 21.61 2.61 28.5 1.14 5.22 3.42 13.55 5.07 18.5 1.65 4.95 5.06 13.05 7.59 18 2.52 4.95 6.66 11.92 9.19 15.5 2.54 3.57 8.69 10.68 13.68 15.79 4.99 5.11 12.45 11.71 16.57 14.67 4.13 2.95 10.43 7.03 14 9.05 3.57 2.02 11.68 6.05 18 8.95 6.32 2.9 16.9 7.41 23.5 10.02 6.6 2.62 17.85 6.77 25 9.22 7.15 2.46 20.42 6.71 29.5 9.45 9.08 2.74 37.42 10.32 63 16.85 25.58 6.53 51 13.26 56.5 14.97 5.5 1.7 13.83 4.49 18.5 6.2 4.67 1.71 12.55 5.13 17.5 7.6 4.95 2.47 11.48 6.18 14.5 8.24 3.02 2.06 7.77 6.16 10.54 9.12 2.77 2.95 6.01 6.94 7.2 8.87 1.19 1.92 3.1 6.2 4.25 9.5 1.15 3.3 2.35 9.37 2.67 13.5 0.32 4.12 0.06 10.87-0.59 15-0.64 4.12-2.28 10.65-3.63 14.5-1.35 3.85-3.91 9.46-5.7 12.47-1.78 3.01-7.07 9.35-11.74 14.09-4.67 4.75-11.2 10.44-14.5 12.67-3.3 2.22-10.05 6.07-15 8.56-4.95 2.48-13.73 6.16-19.5 8.16-5.77 2.01-16.12 4.83-23 6.28-11 2.32-14.84 2.64-32 2.66-13.99 0.02-22.04-0.44-28.5-1.63-4.95-0.91-12.83-2.86-17.5-4.33-4.67-1.47-11.87-4.36-16-6.43-4.12-2.08-10.2-5.79-13.5-8.25-3.3-2.46-7.85-6.68-10.1-9.36-2.26-2.69-5.37-6.92-6.91-9.39-1.54-2.48-3.9-7.43-5.25-11-1.35-3.58-3.07-9.88-3.81-14-0.75-4.13-1.37-10.88-1.38-15 0-4.13 0.43-10.65 0.97-14.5 0.54-3.85 1.21-8.24 1.48-9.75l0.5-2.75c-198.29 0-204.03 0.1-204.49 1.75-0.26 0.96-1.39 7.6-2.5 14.75-1.11 7.15-2.55 20.65-3.2 30-0.91 13-0.92 20.53-0.03 32 0.63 8.25 2.11 19.95 3.27 26 1.17 6.05 3.7 15.72 5.63 21.5 1.93 5.77 6.04 15.45 9.13 21.5 3.09 6.05 8.84 15.27 12.78 20.5 3.93 5.22 11.37 13.55 16.53 18.51 5.16 4.96 14.56 12.46 20.88 16.68 6.33 4.22 16 9.92 21.5 12.67 5.5 2.75 15.18 7.03 21.5 9.5 6.33 2.48 17.13 6.08 24 8.02 6.88 1.94 19.25 4.87 27.5 6.52 8.25 1.65 19.73 3.68 25.5 4.51 5.77 0.83 18.38 2.3 28 3.26 13.44 1.34 27.02 1.76 58.5 1.79 26.66 0.03 45.37-0.41 53.5-1.25 6.88-0.71 17.9-1.96 24.5-2.77 6.6-0.82 19.42-2.84 28.5-4.5 9.08-1.66 25.05-5.23 35.5-7.94 10.45-2.7 24.85-6.9 32-9.32 7.15-2.42 18.85-6.77 26-9.67 7.15-2.9 19.98-8.79 28.5-13.08 8.52-4.3 20.67-11.04 27-14.97 6.33-3.93 17.58-11.7 25-17.27 8.46-6.34 19.12-15.73 28.56-25.15 8.95-8.93 18.7-19.91 24.02-27.04 4.93-6.6 11.51-16.28 14.63-21.5 3.11-5.23 8.11-14.68 11.11-21 2.99-6.33 7.25-16.68 9.45-23 2.2-6.33 5.17-16.23 6.58-22 1.42-5.78 3.49-16.13 4.6-23 1.12-6.88 2.48-18.8 3.03-26.5 0.67-9.47 0.66-18.37-0.03-27.5-0.57-7.43-1.96-17.78-3.1-23-1.14-5.23-3.43-13.33-5.08-18-1.65-4.68-4.59-11.65-6.52-15.5-1.94-3.85-5.8-10.38-8.59-14.5-2.78-4.13-9.13-11.72-14.11-16.88-4.98-5.16-12.42-11.96-16.55-15.12-4.12-3.16-11.77-8.35-17-11.55-5.23-3.19-14.23-8.02-20-10.73-5.77-2.71-15.67-6.94-22-9.39-6.33-2.45-17.8-6.42-25.5-8.81-7.7-2.4-21.87-6.4-31.5-8.89-9.62-2.49-31-7.75-47.5-11.68-16.5-3.94-39.23-9.79-50.5-13.01-11.27-3.22-25-7.48-30.5-9.46-5.5-1.98-14.27-5.64-19.5-8.11-5.23-2.48-12.42-6.45-16-8.83-3.58-2.37-9.2-7.19-12.5-10.71-3.3-3.52-7.24-8.97-8.75-12.11-1.51-3.15-3.26-8.08-3.88-10.97-0.62-2.89-0.91-9.08-0.63-13.75 0.31-5.22 1.43-11.2 2.92-15.5 1.33-3.85 4.48-10.15 7.01-14 2.52-3.85 8.65-10.83 13.62-15.5 4.97-4.68 12.56-10.63 16.87-13.23 4.31-2.6 11.89-6.37 16.84-8.39 4.95-2.01 13.27-4.76 18.5-6.11 6.92-1.79 13.31-2.61 23.5-3.01 8.35-0.32 18.03-0.06 24 0.66 5.5 0.66 14.27 2.33 19.5 3.7 5.23 1.37 13.09 4.38 17.48 6.69 4.39 2.3 10.62 6.66 13.85 9.69 3.23 3.02 7.49 7.97 9.47 11 1.98 3.02 4.64 8.54 5.9 12.25 1.37 4.02 2.55 10.48 2.92 16 0.43 6.51 0.13 11.99-1 18.5-0.89 5.09-1.62 9.47-1.62 9.75 0 0.27 45.9 0.5 102 0.5h102c1.72-6.59 3.29-13.23 4.59-19 1.31-5.78 3.12-16.8 4.01-24.5 1.16-9.89 1.48-18.4 1.1-29-0.3-8.25-1.27-18.83-2.17-23.5-0.9-4.68-2.79-12.33-4.2-17-1.41-4.68-4.34-12.33-6.51-17-2.17-4.68-6.5-12.33-9.63-17-3.12-4.68-9.96-12.94-15.18-18.37-5.23-5.44-13.11-12.57-17.51-15.85-4.4-3.28-12.27-8.5-17.5-11.59-5.23-3.09-14.45-7.83-20.5-10.54-6.05-2.71-17.08-6.92-24.5-9.36-7.42-2.45-18.9-5.75-25.5-7.34-6.6-1.59-17.17-3.77-23.5-4.86-6.33-1.08-17.35-2.67-24.5-3.52-7.15-0.85-19.52-2-27.5-2.55-7.98-0.55-26.65-0.94-41.5-0.86-14.85 0.07-32.62 0.49-39.5 0.92zm475.63 16.17c-0.3 1.24-35.46 166.5-78.13 367.25-42.67 200.75-77.78 365.79-78.04 366.75-0.44 1.66 13.41 1.75 280.54 1.75h281c0.8-3.49 7.55-35.1 15.52-72.5 7.96-37.4 14.48-68.56 14.48-69.25 0-1-36.37-1.25-178.5-1.25h-178.5c0.7-3.49 7.94-37.58 16.52-78 8.59-40.43 15.92-74.75 16.3-76.27l0.68-2.77 328.87-0.46c22.9-107.73 29.57-139.79 29.59-140.75 0.04-1.66-8.42-1.75-163.96-1.75-108.67 0-164-0.34-164-1 0-0.55 7-33.96 15.54-74.25 8.55-40.29 15.75-74.04 16-75 0.44-1.66 9.81-1.75 179.21-1.75h178.75c23.13-108.89 29.99-141.06 30.17-141.75 0.26-1-56.34-1.25-280.58-1.25h-280.91zm677.38-1.5c0.01 0.41-34.9 165-77.58 365.75-42.68 200.75-77.9 366.47-78.27 368.27l-0.66 3.28 183.98-0.55c93.01-437.5 120.47-564.51 121.02-564.52 0.55 0 29.98 125.67 65.41 279.26 35.43 153.59 64.79 280.72 65.25 282.51l0.84 3.25 282.5 0.05c1.06-4.3 36.27-169.69 78.93-370.3 42.66-200.61 77.54-365.43 77.51-366.26-0.05-1.33-10.67-1.47-91.68-1.25l-91.62 0.26c-90.01 423.43-116.69 546.96-117.37 547.68-1.01 1.09-1.32 1.06-1.73-0.18-0.28-0.83-29.54-123.9-65.02-273.5-35.48-149.6-64.74-272.56-65.02-273.25-0.4-0.99-30.04-1.25-143.5-1.25-78.65 0-142.99 0.34-142.99 0.75zm862.7 367.5c-123.01 202.54-223.67 368.59-223.69 369-0.01 0.41 45.77 0.75 101.73 0.76h101.75l78.5-144.01c249.33 0 300 0.34 300 1 0 0.55 4.05 32.61 8.99 71.25 4.95 38.64 9 70.59 9 71 0.01 0.41 51.98 0.75 115.51 0.75h115.5c-0.77-4.26-30.92-169.86-67.5-370.75-36.58-200.89-66.5-365.7-66.5-366.25 0-0.66-42.27-1-124.81-1h-124.82zm763.48 0c-43.03 202.54-78.22 368.59-78.21 369 0.01 0.41 45.92 0.75 102.02 0.75h102c0.7-3.49 35.81-168.75 78.48-369.5 42.67-200.75 77.79-365.79 78.05-366.75 0.45-1.66-4.89-1.75-101.82-1.75h-102.29z"/>
		<path id="Path 2" class="s0" d="m2957.84 452.61c-45.29 83.94-82.45 153.01-82.59 153.5-0.14 0.52 41.31 0.89 98.25 0.89h98.5c-0.77-7.36-7.08-74.98-14.52-155-7.44-80.02-13.74-146.96-14-148.75-0.28-1.9-1.06-3.25-1.89-3.25-0.85 0-34.23 60.83-83.75 152.61z"/>
	</g>
</svg>